<svg viewBox="0 0 600 400" fill="none" xmlns="http://www.w3.org/2000/svg">
  <defs>
    <linearGradient id="l" x1="0" y1="0" x2="600" y2="400" gradientUnits="userSpaceOnUse">
      <stop stop-color="#3f8fff" stop-opacity="0.5"/>
      <stop offset="1" stop-color="#00c2ff" stop-opacity="0.08"/>
    </linearGradient>
  </defs>
  <path d="M0 70 C 150 30, 300 104, 600 58" stroke="url(#l)" stroke-width="1"/>
  <path d="M0 114 C 150 76, 300 146, 600 102" stroke="url(#l)" stroke-width="1" opacity="0.89"/>
  <path d="M0 158 C 150 122, 300 188, 600 146" stroke="url(#l)" stroke-width="1" opacity="0.78"/>
  <path d="M0 202 C 150 168, 300 230, 600 190" stroke="url(#l)" stroke-width="1" opacity="0.67"/>
  <path d="M0 246 C 150 214, 300 272, 600 234" stroke="url(#l)" stroke-width="1" opacity="0.56"/>
  <path d="M0 290 C 150 260, 300 314, 600 278" stroke="url(#l)" stroke-width="1" opacity="0.45"/>
  <path d="M0 334 C 150 306, 300 356, 600 322" stroke="url(#l)" stroke-width="1" opacity="0.34"/>
</svg>
